<svg width="36" height="36" viewBox="0 0 36 36" fill="none" xmlns="http://www.w3.org/2000/svg">
<path d="M14.7261 19.8461C14.6195 19.8461 12.2748 19.8461 11.209 19.8461C10.6405 19.8461 10.4629 19.6328 10.4629 19.0994C10.4629 17.6772 10.4629 16.2194 10.4629 14.7972C10.4629 14.2283 10.6761 14.0505 11.209 14.0505H14.7261C14.7261 13.9439 14.7261 11.8817 14.7261 10.9217C14.7261 9.49944 14.9748 8.14832 15.6854 6.90388C16.4314 5.62388 17.4972 4.77055 18.8473 4.27277C19.7354 3.95277 20.6236 3.81055 21.5828 3.81055H25.0645C25.5618 3.81055 25.775 4.02388 25.775 4.52166V8.57499C25.775 9.07277 25.5618 9.2861 25.0645 9.2861C24.1052 9.2861 23.146 9.2861 22.1868 9.32166C21.2276 9.32166 20.7302 9.78388 20.7302 10.7794C20.6947 11.8461 20.7302 12.8772 20.7302 13.9794H24.8513C25.4197 13.9794 25.6329 14.1928 25.6329 14.7617V19.0639C25.6329 19.6328 25.4553 19.8105 24.8513 19.8105C23.5723 19.8105 20.8368 19.8105 20.7302 19.8105V31.4017C20.7302 32.0061 20.5525 32.2194 19.9131 32.2194C18.4209 32.2194 16.9643 32.2194 15.4722 32.2194C14.9393 32.2194 14.7261 32.0061 14.7261 31.4728C14.7261 27.7394 14.7261 19.9528 14.7261 19.8461Z" fill="#F8F8F8"/>
</svg>
