<svg width="92" height="92" viewBox="0 0 92 92" fill="none" xmlns="http://www.w3.org/2000/svg">
<path d="M35.1593 62.261L46 51.4203L56.8407 62.261L62.261 56.8407L51.4203 46L62.261 35.1593L56.8407 29.739L46 40.5797L35.1593 29.739L29.739 35.1593L40.5797 46L29.739 56.8407L35.1593 62.261Z" fill="#F73217"/>
<path d="M46.0001 84.3334C67.1371 84.3334 84.3334 67.137 84.3334 46C84.3334 24.863 67.1371 7.66669 46.0001 7.66669C24.8631 7.66669 7.66675 24.863 7.66675 46C7.66675 67.137 24.8631 84.3334 46.0001 84.3334ZM46.0001 15.3334C62.9089 15.3334 76.6667 29.0912 76.6667 46C76.6667 62.9089 62.9089 76.6667 46.0001 76.6667C29.0912 76.6667 15.3334 62.9089 15.3334 46C15.3334 29.0912 29.0912 15.3334 46.0001 15.3334Z" fill="#F73217"/>
</svg>
