<svg width="33" height="32" viewBox="0 0 33 32" fill="none" xmlns="http://www.w3.org/2000/svg">
<g clip-path="url(#clip0_1315_10866)">
<path d="M24.4126 0.22168H8.49953C4.12381 0.22168 0.542969 3.72054 0.542969 7.99946V23.555C0.542969 27.8324 4.12381 31.3328 8.49953 31.3328H24.4126C28.7884 31.3328 32.3692 27.8324 32.3692 23.555V7.99946C32.3692 3.72054 28.7884 0.22168 24.4126 0.22168ZM16.4561 22.2585C12.7937 22.2585 9.82549 19.3558 9.82549 15.7772C9.82549 12.1971 12.7937 9.29563 16.4561 9.29563C20.1169 9.29563 23.0867 12.1971 23.0867 15.7772C23.0867 19.3558 20.1169 22.2585 16.4561 22.2585ZM25.0758 9.29563C23.9762 9.29563 23.0867 8.42488 23.0867 7.35118C23.0867 6.27748 23.9762 5.40674 25.0758 5.40674C26.1754 5.40674 27.065 6.27748 27.065 7.35118C27.065 8.42488 26.1754 9.29563 25.0758 9.29563Z" fill="#F8F8F8"/>
</g>
<defs>
<clipPath id="clip0_1315_10866">
<rect width="31.8262" height="31.1111" fill="white" transform="translate(0.546875 0.222168)"/>
</clipPath>
</defs>
</svg>
