<svg width="104" height="99" viewBox="0 0 104 99" fill="none" xmlns="http://www.w3.org/2000/svg">
<path d="M98.8182 51.818C98.8182 45.6936 97.6072 39.6292 95.2544 33.971C92.9015 28.3129 89.4529 23.1717 85.1055 18.8411C80.758 14.5105 75.5968 11.0753 69.9165 8.73162C64.2363 6.38793 58.1483 5.18164 52 5.18164C45.8518 5.18164 39.7637 6.38792 34.0835 8.73161C28.4032 11.0753 23.242 14.5105 18.8946 18.8411C14.5471 23.1717 11.0985 28.3128 8.74566 33.971C6.39282 39.6292 5.18183 45.6936 5.18182 51.818" stroke="#EBEBEB" stroke-width="10.3636" stroke-linecap="round" stroke-linejoin="round"/>
<path d="M5.18182 51.818C5.18182 39.4493 10.1144 27.5871 18.8946 18.8411C27.6747 10.0951 39.5831 5.18164 52 5.18164" stroke="#009883" stroke-width="10.3636" stroke-linecap="round" stroke-linejoin="round"/>
</svg>
