<svg width="31" height="30" viewBox="0 0 31 30" fill="none" xmlns="http://www.w3.org/2000/svg">
<g clip-path="url(#clip0_1315_10870)">
<path d="M30.5101 5.84805C29.4091 6.33138 28.236 6.65175 27.0129 6.80731C28.2712 6.05545 29.2315 4.87397 29.683 3.4499C28.5099 4.1499 27.2146 4.64434 25.8342 4.92027C24.7203 3.73323 23.1327 2.99805 21.4008 2.99805C18.0405 2.99805 15.3353 5.72768 15.3353 9.07397C15.3353 9.55545 15.376 10.0184 15.4759 10.4592C10.43 10.2129 5.96504 7.79249 2.9656 4.10545C2.44195 5.01471 2.13479 6.05545 2.13479 7.17582C2.13479 9.27953 3.21725 11.1443 4.83077 12.224C3.85563 12.2055 2.89899 11.9221 2.08853 11.4758C2.08853 11.4943 2.08853 11.5184 2.08853 11.5425C2.08853 14.4943 4.19239 16.9462 6.95128 17.511C6.45724 17.6462 5.91878 17.711 5.35997 17.711C4.97139 17.711 4.57912 17.6888 4.2109 17.6073C4.9973 20.0129 7.22884 21.7814 9.88226 21.8388C7.81725 23.4555 5.19529 24.4295 2.35683 24.4295C1.85908 24.4295 1.38169 24.4073 0.904297 24.3462C3.59287 26.0814 6.7792 27.0721 10.2153 27.0721C21.3841 27.0721 27.4903 17.8129 27.4903 9.78694C27.4903 9.51842 27.4811 9.25916 27.4681 9.00175C28.6727 8.14619 29.6848 7.07768 30.5101 5.84805Z" fill="#F8F8F8"/>
</g>
<defs>
<clipPath id="clip0_1315_10870">
<rect width="29.6058" height="29.6296" fill="white" transform="translate(0.900391 0.220215)"/>
</clipPath>
</defs>
</svg>
