<svg width="49" height="48" viewBox="0 0 49 48" fill="none" xmlns="http://www.w3.org/2000/svg">
<g clip-path="url(#clip0_1317_9635)">
<path fill-rule="evenodd" clip-rule="evenodd" d="M48.4903 35.8191C48.4903 36.082 48.4822 36.6518 48.4665 37.0921C48.4281 38.1694 48.3425 39.5595 48.2132 40.1929C48.0191 41.1446 47.7261 42.043 47.3443 42.7908C46.4538 44.5453 45.0273 45.9701 43.2717 46.8584C42.5201 47.2414 41.6161 47.5346 40.6588 47.7279C40.0317 47.8545 38.6522 47.9391 37.5818 47.9764C37.1402 47.9921 36.5709 48 36.3092 48L12.674 47.9962C12.4112 47.9962 11.8413 47.9881 11.4011 47.9724C10.3238 47.934 8.93369 47.8483 8.30029 47.7193C7.34854 47.525 6.44998 47.2322 5.70233 46.8501C3.94817 45.9597 2.52364 44.5331 1.63577 42.7776C1.25177 42.0259 0.959357 41.122 0.766205 40.1649C0.639677 39.5378 0.555005 38.1581 0.517757 37.0877C0.502013 36.6474 0.494141 36.0768 0.494141 35.8155L0.497981 12.1803C0.497981 11.9174 0.506045 11.3476 0.521789 10.9073C0.560189 9.83002 0.645821 8.43994 0.774845 7.80653C0.968957 6.85536 1.26214 5.95699 1.64403 5.20915C2.53441 3.45466 3.961 2.02975 5.71654 1.14144C6.46841 0.75744 7.37235 0.465216 8.32966 0.272064C8.95654 0.145344 10.3363 0.060864 11.4067 0.023616C11.8467 0.007872 12.4173 0 12.6787 0L36.3139 0.00384C36.5767 0.00384 37.1466 0.011904 37.5868 0.027648C38.6641 0.066048 40.0542 0.15168 40.6876 0.280704C41.6397 0.474816 42.5372 0.768 43.285 1.14989C45.0395 2.04016 46.4644 3.46679 47.3525 5.2224C47.7365 5.97408 48.0287 6.87802 48.2221 7.83514C48.3486 8.46221 48.4333 9.84192 48.4705 10.9123C48.4863 11.353 48.4941 11.9232 48.4941 12.1849L48.4903 35.8191Z" fill="#0C111D"/>
<path fill-rule="evenodd" clip-rule="evenodd" d="M37.2102 11.3559C33.9606 8.10343 29.6393 6.31149 25.0345 6.30957C15.5472 6.30957 7.82596 14.028 7.82212 23.5155C7.81837 26.5348 8.61084 29.5017 10.1196 32.1171L7.67773 41.0335L16.8023 38.6408C19.3262 40.0149 22.154 40.7349 25.0276 40.7352H25.0347C34.5209 40.7352 42.2431 33.0158 42.2469 23.5285C42.2487 18.9309 40.46 14.6076 37.2102 11.3557V11.3559ZM25.0347 37.8298H25.0288C22.4668 37.8302 19.9519 37.1416 17.7474 35.8363L17.2249 35.5264L11.8105 36.9472L13.2557 31.6697L12.9161 31.1277C11.4826 28.8481 10.7238 26.2093 10.7273 23.5164C10.7311 15.6312 17.1489 9.21607 25.0403 9.21607C28.8611 9.2176 32.4534 10.7071 35.1545 13.4105C37.8555 16.1139 39.3422 19.7069 39.3401 23.5289C39.337 31.4149 32.9194 37.8308 25.0341 37.8308L25.0347 37.8298Z" fill="white"/>
<path fill-rule="evenodd" clip-rule="evenodd" d="M19.2634 31.85C19.3846 31.923 19.6334 31.923 20.2042 31.9224C22.6263 31.9203 24.7183 31.913 26.2065 31.913C33.1513 31.913 32.9687 24.6019 29.7216 23.6897C30.1972 22.8472 32.3641 21.2643 31.024 17.9926C29.6992 14.7576 23.9997 15.4918 20.1019 15.4938C18.6596 15.4938 18.8754 16.5596 18.8827 18.2165C18.8946 20.841 18.8848 27.9446 18.8827 31.0154C18.8827 31.6379 19.0706 31.7335 19.2634 31.85ZM22.2684 29.1707C22.9241 29.1707 24.4708 29.1707 25.7968 29.1686C27.2982 29.1663 28.6351 28.4639 28.6017 26.9692C28.5773 25.5613 27.6406 25.0991 26.3403 24.9701C25.1019 24.982 23.6855 24.982 22.2684 24.982V29.1707ZM22.2684 22.1542C24.8806 22.1183 25.8884 22.2595 27.3145 21.9023C28.2937 21.3455 28.7227 19.2831 27.3201 18.5823C26.3457 18.0955 23.4665 18.262 22.2684 18.3119V22.1542Z" fill="white"/>
</g>
<defs>
<clipPath id="clip0_1317_9635">
<rect width="48" height="48" fill="white" transform="translate(0.494141)"/>
</clipPath>
</defs>
</svg>
