<svg width="41" height="40" viewBox="0 0 41 40" fill="none" xmlns="http://www.w3.org/2000/svg">
<path fill-rule="evenodd" clip-rule="evenodd" d="M7.21419 3.3335H33.8809C35.7218 3.3335 37.2142 4.82588 37.2142 6.66683V33.3335C37.2142 35.1744 35.7218 36.6668 33.8809 36.6668H7.21419C5.37324 36.6668 3.88086 35.1744 3.88086 33.3335V6.66683C3.88086 4.82588 5.37324 3.3335 7.21419 3.3335ZM7.21419 6.66683V33.3335H33.8809V6.66683H7.21419ZM22.2142 15.0002C21.3513 15.0002 20.4396 15.2639 19.6344 15.7537L18.8809 15.0002H17.2142V26.6668H20.5475V20.0002C20.5475 19.0406 21.5374 18.3335 22.2142 18.3335H23.8809C24.5576 18.3335 25.5475 19.0406 25.5475 20.0002V26.6668H28.8809V20.0002C28.8809 16.9121 26.2041 15.0002 23.8809 15.0002H22.2142ZM13.8809 13.3335C14.8013 13.3335 15.5475 12.5873 15.5475 11.6668C15.5475 10.7464 14.8013 10.0002 13.8809 10.0002C12.9604 10.0002 12.2142 10.7464 12.2142 11.6668C12.2142 12.5873 12.9604 13.3335 13.8809 13.3335ZM12.2142 26.6668H15.5475V15.0002H12.2142V26.6668Z" fill="#F8F8F8"/>
</svg>
